{
    "asset" : {
        "generator" : "Khronos glTF Blender I/O v0.9.36",
        "version" : "2.0"
    },
    "scene" : 0,
    "scenes" : [
        {
            "name" : "Scene",
            "nodes" : [
                0,
                1,
                2,
                3,
                4,
                5
            ]
        }
    ],
    "nodes" : [
        {
            "name" : "Light",
            "rotation" : [
                0.16907575726509094,
                0.7558803558349609,
                -0.27217137813568115,
                0.570947527885437
            ],
            "translation" : [
                4.076245307922363,
                5.903861999511719,
                -1.0054539442062378
            ]
        },
        {
            "name" : "Camera",
            "rotation" : [
                0.483536034822464,
                0.33687159419059753,
                -0.20870360732078552,
                0.7804827094078064
            ],
            "translation" : [
                7.358891487121582,
                4.958309173583984,
                6.925790786743164
            ]
        },
        {
            "mesh" : 0,
            "name" : "LOD1",
            "rotation" : [
                0.7071068286895752,
                0,
                0,
                0.7071067094802856
            ],
            "scale" : [
                0.009999999776482582,
                0.009999999776482582,
                0.009999999776482582
            ],
            "translation" : [
                2.615969181060791,
                0,
                -0.1736651510000229
            ]
        },
        {
            "mesh" : 1,
            "name" : "LOD2",
            "rotation" : [
                0.7071068286895752,
                0,
                0,
                0.7071067094802856
            ],
            "scale" : [
                0.009999999776482582,
                0.009999999776482582,
                0.009999999776482582
            ],
            "translation" : [
                5.101731777191162,
                0,
                -0.1736651510000229
            ]
        },
        {
            "mesh" : 2,
            "name" : "LOD3",
            "rotation" : [
                0.7071068286895752,
                0,
                0,
                0.7071067094802856
            ],
            "scale" : [
                0.009999999776482582,
                0.009999999776482582,
                0.009999999776482582
            ],
            "translation" : [
                7.634191036224365,
                0,
                -0.16752396523952484
            ]
        },
        {
            "mesh" : 3,
            "name" : "LOD0",
            "rotation" : [
                0.7071068286895752,
                0,
                0,
                0.7071067094802856
            ],
            "scale" : [
                0.009999999776482582,
                0.009999999776482582,
                0.009999999776482582
            ],
            "translation" : [
                0.0756470113992691,
                0,
                -0.1736651510000229
            ]
        }
    ],
    "materials" : [
        {
            "doubleSided" : true,
            "name" : "Material10",
            "pbrMetallicRoughness" : {
                "metallicFactor" : 1,
                "roughnessFactor" : 0.5527864098548889
            }
        }
    ],
    "meshes" : [
        {
            "name" : "Mesh",
            "primitives" : [
                {
                    "attributes" : {
                        "POSITION" : 0,
                        "NORMAL" : 1,
                        "TEXCOORD_0" : 2
                    },
                    "indices" : 3,
                    "material" : 0
                }
            ]
        },
        {
            "name" : "_ncl1_1",
            "primitives" : [
                {
                    "attributes" : {
                        "POSITION" : 4,
                        "NORMAL" : 5,
                        "TEXCOORD_0" : 6
                    },
                    "indices" : 7,
                    "material" : 0
                }
            ]
        },
        {
            "name" : "_ncl1_2",
            "primitives" : [
                {
                    "attributes" : {
                        "POSITION" : 8,
                        "NORMAL" : 9,
                        "TEXCOORD_0" : 10
                    },
                    "indices" : 11,
                    "material" : 0
                }
            ]
        },
        {
            "name" : "_ncl1_3",
            "primitives" : [
                {
                    "attributes" : {
                        "POSITION" : 12,
                        "NORMAL" : 13,
                        "TEXCOORD_0" : 14
                    },
                    "indices" : 15,
                    "material" : 0
                }
            ]
        }
    ],
    "accessors" : [
        {
            "bufferView" : 0,
            "componentType" : 5126,
            "count" : 4514,
            "max" : [
                97.99571228027344,
                83.42247009277344,
                3
            ],
            "min" : [
                -103.30461120605469,
                -39.88679122924805,
                -113.87509155273438
            ],
            "type" : "VEC3"
        },
        {
            "bufferView" : 1,
            "componentType" : 5126,
            "count" : 4514,
            "type" : "VEC3"
        },
        {
            "bufferView" : 2,
            "componentType" : 5126,
            "count" : 4514,
            "type" : "VEC2"
        },
        {
            "bufferView" : 3,
            "componentType" : 5123,
            "count" : 8199,
            "type" : "SCALAR"
        },
        {
            "bufferView" : 4,
            "componentType" : 5126,
            "count" : 3006,
            "max" : [
                97.99571228027344,
                83.42247009277344,
                3
            ],
            "min" : [
                -103.30461120605469,
                -39.88679122924805,
                -113.87509155273438
            ],
            "type" : "VEC3"
        },
        {
            "bufferView" : 5,
            "componentType" : 5126,
            "count" : 3006,
            "type" : "VEC3"
        },
        {
            "bufferView" : 6,
            "componentType" : 5126,
            "count" : 3006,
            "type" : "VEC2"
        },
        {
            "bufferView" : 7,
            "componentType" : 5123,
            "count" : 5625,
            "type" : "SCALAR"
        },
        {
            "bufferView" : 8,
            "componentType" : 5126,
            "count" : 869,
            "max" : [
                97.99571228027344,
                83.42247009277344,
                0
            ],
            "min" : [
                -103.30461120605469,
                -38.98921203613281,
                -113.87509155273438
            ],
            "type" : "VEC3"
        },
        {
            "bufferView" : 9,
            "componentType" : 5126,
            "count" : 869,
            "type" : "VEC3"
        },
        {
            "bufferView" : 10,
            "componentType" : 5126,
            "count" : 869,
            "type" : "VEC2"
        },
        {
            "bufferView" : 11,
            "componentType" : 5123,
            "count" : 1458,
            "type" : "SCALAR"
        },
        {
            "bufferView" : 12,
            "componentType" : 5126,
            "count" : 5578,
            "max" : [
                97.99571228027344,
                83.42247009277344,
                3
            ],
            "min" : [
                -103.30461120605469,
                -39.88679122924805,
                -113.87509155273438
            ],
            "type" : "VEC3"
        },
        {
            "bufferView" : 13,
            "componentType" : 5126,
            "count" : 5578,
            "type" : "VEC3"
        },
        {
            "bufferView" : 14,
            "componentType" : 5126,
            "count" : 5578,
            "type" : "VEC2"
        },
        {
            "bufferView" : 15,
            "componentType" : 5123,
            "count" : 10293,
            "type" : "SCALAR"
        }
    ],
    "bufferViews" : [
        {
            "buffer" : 0,
            "byteLength" : 54168,
            "byteOffset" : 0
        },
        {
            "buffer" : 0,
            "byteLength" : 54168,
            "byteOffset" : 54168
        },
        {
            "buffer" : 0,
            "byteLength" : 36112,
            "byteOffset" : 108336
        },
        {
            "buffer" : 0,
            "byteLength" : 16398,
            "byteOffset" : 144448
        },
        {
            "buffer" : 0,
            "byteLength" : 36072,
            "byteOffset" : 160848
        },
        {
            "buffer" : 0,
            "byteLength" : 36072,
            "byteOffset" : 196920
        },
        {
            "buffer" : 0,
            "byteLength" : 24048,
            "byteOffset" : 232992
        },
        {
            "buffer" : 0,
            "byteLength" : 11250,
            "byteOffset" : 257040
        },
        {
            "buffer" : 0,
            "byteLength" : 10428,
            "byteOffset" : 268292
        },
        {
            "buffer" : 0,
            "byteLength" : 10428,
            "byteOffset" : 278720
        },
        {
            "buffer" : 0,
            "byteLength" : 6952,
            "byteOffset" : 289148
        },
        {
            "buffer" : 0,
            "byteLength" : 2916,
            "byteOffset" : 296100
        },
        {
            "buffer" : 0,
            "byteLength" : 66936,
            "byteOffset" : 299016
        },
        {
            "buffer" : 0,
            "byteLength" : 66936,
            "byteOffset" : 365952
        },
        {
            "buffer" : 0,
            "byteLength" : 44624,
            "byteOffset" : 432888
        },
        {
            "buffer" : 0,
            "byteLength" : 20586,
            "byteOffset" : 477512
        }
    ],
    "buffers" : [
        {
            "byteLength" : 498100,
            "uri" : "data:application/octet-stream;base64,"
        }
    ]
}
