{
    "asset" : {
        "generator" : "Khronos glTF Blender I/O v0.9.36",
        "version" : "2.0"
    },
    "extensionsUsed" : [
        "KHR_lights_punctual"
    ],
    "extensionsRequired" : [
        "KHR_lights_punctual"
    ],
    "extensions" : {
        "KHR_lights_punctual" : {
            "lights" : [
                {
                    "color" : [
                        1,
                        1,
                        1
                    ],
                    "intensity" : 200,
                    "type" : "point",
                    "name" : "Point"
                },
                {
                    "color" : [
                        1,
                        1,
                        1
                    ],
                    "intensity" : 50,
                    "type" : "point",
                    "name" : "Point.002"
                },
                {
                    "color" : [
                        1,
                        1,
                        1
                    ],
                    "intensity" : 50,
                    "type" : "point",
                    "name" : "Point.003"
                }
            ]
        }
    },
    "scene" : 0,
    "scenes" : [
        {
            "name" : "Scene",
            "nodes" : [
                1,
                2,
                4,
                6,
                8
            ]
        }
    ],
    "nodes" : [
        {
            "camera" : 0,
            "name" : "Camera_Orientation",
            "rotation" : [
                -0.7071067690849304,
                0,
                0,
                0.7071067690849304
            ]
        },
        {
            "children" : [
                0
            ],
            "name" : "Camera",
            "rotation" : [
                0.5246310234069824,
                0.07443472743034363,
                -0.04611488804221153,
                0.846814751625061
            ],
            "translation" : [
                1.841047763824463,
                4.958309173583984,
                12.022897720336914
            ]
        },
        {
            "mesh" : 0,
            "name" : "LOD0",
            "rotation" : [
                0.7071068286895752,
                0,
                0,
                0.7071067094802856
            ],
            "scale" : [
                0.009999999776482582,
                0.009999999776482582,
                0.009999999776482582
            ],
            "translation" : [
                0.0756470113992691,
                0,
                -0.1736651510000229
            ]
        },
        {
            "extensions" : {
                "KHR_lights_punctual" : {
                    "light" : 0
                }
            },
            "name" : "Point_Orientation",
            "rotation" : [
                -0.7071067690849304,
                0,
                0,
                0.7071067690849304
            ]
        },
        {
            "children" : [
                3
            ],
            "name" : "Point",
            "translation" : [
                -1.2357690334320068,
                1.82961106300354,
                0.28427958488464355
            ]
        },
        {
            "extensions" : {
                "KHR_lights_punctual" : {
                    "light" : 1
                }
            },
            "name" : "Point.001_Orientation",
            "rotation" : [
                -0.7071067690849304,
                0,
                0,
                0.7071067690849304
            ]
        },
        {
            "children" : [
                5
            ],
            "name" : "Point.001",
            "translation" : [
                0.8984522223472595,
                0.5077551007270813,
                0.7581695914268494
            ]
        },
        {
            "extensions" : {
                "KHR_lights_punctual" : {
                    "light" : 2
                }
            },
            "name" : "Point.002_Orientation",
            "rotation" : [
                -0.7071067690849304,
                0,
                0,
                0.7071067690849304
            ]
        },
        {
            "children" : [
                7
            ],
            "name" : "Point.002",
            "translation" : [
                1.0755116939544678,
                1.0013272762298584,
                -1.8342094421386719
            ]
        }
    ],
    "cameras" : [
        {
            "name" : "Camera",
            "perspective" : {
                "yfov" : 0.39959648408210363,
                "zfar" : 100,
                "znear" : 0.10000000149011612
            },
            "type" : "perspective"
        }
    ],
    "materials" : [
        {
            "doubleSided" : true,
            "name" : "Material10",
            "pbrMetallicRoughness" : {
                "baseColorTexture" : {
                    "index" : 0,
                    "texCoord" : 0
                },
                "metallicFactor" : 0,
                "roughnessFactor" : 0.5
            }
        }
    ],
    "meshes" : [
        {
            "name" : "_ncl1_3",
            "primitives" : [
                {
                    "attributes" : {
                        "POSITION" : 0,
                        "NORMAL" : 1,
                        "TEXCOORD_0" : 2
                    },
                    "indices" : 3,
                    "material" : 0
                }
            ]
        }
    ],
    "textures" : [
        {
            "source" : 0
        }
    ],
    "images" : [
        {
            "mimeType" : "image/png",
            "name" : "MSK_House_Building25_Albedo",
            "uri" : "MSK_House_Building25_Albedo.png"
        }
    ],
    "accessors" : [
        {
            "bufferView" : 0,
            "componentType" : 5126,
            "count" : 5599,
            "max" : [
                97.99571228027344,
                83.42247009277344,
                3
            ],
            "min" : [
                -103.30461120605469,
                -39.88679122924805,
                -113.87509155273438
            ],
            "type" : "VEC3"
        },
        {
            "bufferView" : 1,
            "componentType" : 5126,
            "count" : 5599,
            "type" : "VEC3"
        },
        {
            "bufferView" : 2,
            "componentType" : 5126,
            "count" : 5599,
            "type" : "VEC2"
        },
        {
            "bufferView" : 3,
            "componentType" : 5123,
            "count" : 10293,
            "type" : "SCALAR"
        }
    ],
    "bufferViews" : [
        {
            "buffer" : 0,
            "byteLength" : 67188,
            "byteOffset" : 0
        },
        {
            "buffer" : 0,
            "byteLength" : 67188,
            "byteOffset" : 67188
        },
        {
            "buffer" : 0,
            "byteLength" : 44792,
            "byteOffset" : 134376
        },
        {
            "buffer" : 0,
            "byteLength" : 20586,
            "byteOffset" : 179168
        }
    ],
    "buffers" : [
        {
            "byteLength" : 199756,
            "uri" : "complete.bin"
        }
    ]
}
