{
    "asset" : {
        "generator" : "Khronos glTF Blender I/O v0.9.36",
        "version" : "2.0"
    },
    "scene" : 0,
    "scenes" : [
        {
            "name" : "Scene",
            "nodes" : [
                0,
                1,
                2
            ]
        }
    ],
    "nodes" : [
        {
            "name" : "Light",
            "rotation" : [
                0.16907575726509094,
                0.7558803558349609,
                -0.27217137813568115,
                0.570947527885437
            ],
            "translation" : [
                4.076245307922363,
                5.903861999511719,
                -1.0054539442062378
            ]
        },
        {
            "name" : "Camera",
            "rotation" : [
                0.483536034822464,
                0.33687159419059753,
                -0.20870360732078552,
                0.7804827094078064
            ],
            "translation" : [
                7.358891487121582,
                4.958309173583984,
                6.925790786743164
            ]
        },
        {
            "mesh" : 0,
            "name" : "LOD0"
        }
    ],
    "materials" : [
        {
            "doubleSided" : true,
            "name" : "Material10",
            "pbrMetallicRoughness" : {}
        }
    ],
    "meshes" : [
        {
            "name" : "_ncl1_3",
            "primitives" : [
                {
                    "attributes" : {
                        "POSITION" : 0,
                        "NORMAL" : 1,
                        "TEXCOORD_0" : 2
                    },
                    "indices" : 3,
                    "material" : 0
                }
            ]
        }
    ],
    "accessors" : [
        {
            "bufferView" : 0,
            "componentType" : 5126,
            "count" : 5597,
            "max" : [
                1.055604100227356,
                1.1387507915496826,
                0.6605595350265503
            ],
            "min" : [
                -0.9573991298675537,
                -0.03000013343989849,
                -0.5725330114364624
            ],
            "type" : "VEC3"
        },
        {
            "bufferView" : 1,
            "componentType" : 5126,
            "count" : 5597,
            "type" : "VEC3"
        },
        {
            "bufferView" : 2,
            "componentType" : 5126,
            "count" : 5597,
            "type" : "VEC2"
        },
        {
            "bufferView" : 3,
            "componentType" : 5123,
            "count" : 10293,
            "type" : "SCALAR"
        }
    ],
    "bufferViews" : [
        {
            "buffer" : 0,
            "byteLength" : 67164,
            "byteOffset" : 0
        },
        {
            "buffer" : 0,
            "byteLength" : 67164,
            "byteOffset" : 67164
        },
        {
            "buffer" : 0,
            "byteLength" : 44776,
            "byteOffset" : 134328
        },
        {
            "buffer" : 0,
            "byteLength" : 20586,
            "byteOffset" : 179104
        }
    ],
    "buffers" : [
        {
            "byteLength" : 199692,
            "uri" : "data:application/octet-stream;base64,"
        }
    ]
}
