{
    "asset" : {
        "generator" : "Khronos glTF Blender I/O v0.9.36",
        "version" : "2.0"
    },
    "scene" : 0,
    "scenes" : [
        {
            "name" : "Scene",
            "nodes" : [
                17,
                0,
                1,
                2,
                3,
                4,
                5,
                6,
                7,
                8,
                9,
                10,
                11,
                12,
                13,
                14,
                15,
                16
            ]
        }
    ],
    "nodes" : [
        {
            "mesh" : 0,
            "name" : "LOD0",
            "rotation" : [
                1,
                0,
                0,
                -1.3435885648505064e-07
            ],
            "scale" : [
                0.009999999776482582,
                0.009999999776482582,
                0.009999999776482582
            ],
            "translation" : [
                0.0756470113992691,
                0,
                -0.17366516590118408
            ]
        },
        {
            "name" : "Point",
            "translation" : [
                -1.1544049978256226,
                0.9172264933586121,
                -0.2824135422706604
            ]
        },
        {
            "name" : "Point.001",
            "translation" : [
                -1.1544049978256226,
                0.42901575565338135,
                -0.26709485054016113
            ]
        },
        {
            "name" : "Point.002",
            "translation" : [
                -1.1544049978256226,
                -0.0701858326792717,
                -0.2642599642276764
            ]
        },
        {
            "name" : "Point.003",
            "translation" : [
                0.9258595108985901,
                -0.004316695034503937,
                0.7222128510475159
            ]
        },
        {
            "name" : "Point.004",
            "translation" : [
                0.9258595108985901,
                0.49887627363204956,
                0.7222128510475159
            ]
        },
        {
            "name" : "Point.005",
            "translation" : [
                0.9258595108985901,
                1.0059621334075928,
                0.7222128510475159
            ]
        },
        {
            "name" : "Point.006",
            "translation" : [
                -0.4979898929595947,
                0.9473497867584229,
                0.9981871247291565
            ]
        },
        {
            "name" : "Point.009",
            "translation" : [
                0.5803672671318054,
                2.987438201904297,
                -2.3110411167144775
            ]
        },
        {
            "name" : "Point.007",
            "translation" : [
                0,
                1.9810316562652588,
                -1.3074393272399902
            ]
        },
        {
            "name" : "Point.008",
            "translation" : [
                1.1181461811065674,
                1.928283452987671,
                -0.7167078852653503
            ]
        },
        {
            "name" : "Point.010",
            "translation" : [
                2.2228565216064453,
                1.477429986000061,
                -0.028084993362426758
            ]
        },
        {
            "name" : "Point.011",
            "translation" : [
                -0.9997963905334473,
                1.768151044845581,
                -1.4273748397827148
            ]
        },
        {
            "name" : "Area"
        },
        {
            "name" : "Point.012",
            "translation" : [
                1.2560948133468628,
                0.26386529207229614,
                -0.028084993362426758
            ]
        },
        {
            "name" : "Point.013",
            "translation" : [
                -0.8297598361968994,
                0.33416056632995605,
                -0.9610907435417175
            ]
        },
        {
            "name" : "Point.014",
            "translation" : [
                1.0044846534729004,
                2.30950665473938,
                -2.0030765533447266
            ]
        },
        {
            "children" : [
                0,
                1,
                2,
                3,
                4,
                5,
                6,
                7,
                8,
                9,
                10,
                11,
                12,
                13,
                14,
                15,
                16
            ],
            "name" : "Duplication_Offset_Collection"
        }
    ],
    "materials" : [
        {
            "doubleSided" : true,
            "name" : "Material10",
            "pbrMetallicRoughness" : {
                "baseColorTexture" : {
                    "index" : 0,
                    "texCoord" : 0
                },
                "metallicFactor" : 1,
                "roughnessFactor" : 0.5527864098548889
            }
        }
    ],
    "meshes" : [
        {
            "name" : "_ncl1_3",
            "primitives" : [
                {
                    "attributes" : {
                        "POSITION" : 0,
                        "NORMAL" : 1,
                        "TEXCOORD_0" : 2
                    },
                    "indices" : 3,
                    "material" : 0
                }
            ]
        }
    ],
    "textures" : [
        {
            "source" : 0
        }
    ],
    "images" : [
        {
            "bufferView" : 4,
            "mimeType" : "image/jpeg",
            "name" : "MSK_House_Building25_Emission"
        }
    ],
    "accessors" : [
        {
            "bufferView" : 0,
            "componentType" : 5126,
            "count" : 8723,
            "max" : [
                97.99571228027344,
                3,
                39.88679122924805
            ],
            "min" : [
                -103.30461120605469,
                -113.87509155273438,
                -83.42247009277344
            ],
            "type" : "VEC3"
        },
        {
            "bufferView" : 1,
            "componentType" : 5126,
            "count" : 8723,
            "type" : "VEC3"
        },
        {
            "bufferView" : 2,
            "componentType" : 5126,
            "count" : 8723,
            "type" : "VEC2"
        },
        {
            "bufferView" : 3,
            "componentType" : 5123,
            "count" : 10293,
            "type" : "SCALAR"
        }
    ],
    "bufferViews" : [
        {
            "buffer" : 0,
            "byteLength" : 104676,
            "byteOffset" : 0
        },
        {
            "buffer" : 0,
            "byteLength" : 104676,
            "byteOffset" : 104676
        },
        {
            "buffer" : 0,
            "byteLength" : 69784,
            "byteOffset" : 209352
        },
        {
            "buffer" : 0,
            "byteLength" : 20586,
            "byteOffset" : 279136
        },
        {
            "buffer" : 0,
            "byteLength" : 1128454,
            "byteOffset" : 299724
        }
    ],
    "buffers" : [
        {
            "byteLength" : 1428180,
            "uri" : "data:application/octet-stream;base64,"
        }
    ]
}
